<svg viewBox="0 0 1024 1024" version="1.1" xmlns="http://www.w3.org/2000/svg" width="1em" height="1em"><path d="M682.666667 725.333333c-72.533333 0-132.266667-21.333333-187.733334-46.933333-51.2-17.066667-98.133333-38.4-153.6-38.4-102.4 0-140.8 29.866667-140.8 29.866667-12.8 12.8-29.866667 17.066667-46.933333 8.533333-17.066667-8.533333-25.6-21.333333-25.6-38.4V128c0-12.8 4.266667-21.333333 12.8-29.866667C149.333333 89.6 204.8 42.666667 341.333333 42.666667c72.533333 0 132.266667 21.333333 187.733334 46.933333 51.2 17.066667 98.133333 38.4 153.6 38.4 102.4 0 140.8-29.866667 140.8-29.866667 12.8-12.8 29.866667-17.066667 46.933333-8.533333 17.066667 8.533333 25.6 21.333333 25.6 38.4v512c0 12.8-4.266667 21.333333-12.8 29.866667-8.533333 8.533333-59.733333 55.466667-200.533333 55.466666z m-341.333334-170.666666c72.533333 0 132.266667 21.333333 187.733334 46.933333 51.2 21.333333 98.133333 38.4 153.6 38.4 68.266667 0 110.933333-12.8 128-21.333333V196.266667c-29.866667 8.533333-72.533333 17.066667-128 17.066666-72.533333 0-132.266667-21.333333-187.733334-46.933333C443.733333 149.333333 396.8 128 341.333333 128c-68.266667 0-110.933333 12.8-128 21.333333v422.4c29.866667-8.533333 72.533333-17.066667 128-17.066666z"></path><path d="M170.666667 981.333333c-25.6 0-42.666667-17.066667-42.666667-42.666666v-298.666667c0-25.6 17.066667-42.666667 42.666667-42.666667s42.666667 17.066667 42.666666 42.666667v298.666667c0 25.6-17.066667 42.666667-42.666666 42.666666z"></path></svg>