<svg viewBox="0 0 1024 1024" version="1.1" xmlns="http://www.w3.org/2000/svg" width="1em" height="1em"><path d="M809.472 588.970667c-17.476267 0-33.655467 4.778667-48.059733 12.561066L645.7344 481.28c2.184533-9.557333 3.584-19.387733 3.584-29.5936 0-23.825067-6.826667-45.909333-17.851733-65.3312l82.261333-81.476267c8.874667 3.140267 18.261333 5.188267 28.194133 5.188267a85.333333 85.333333 0 0 0 85.333334-85.333333c0-46.830933-38.229333-85.333333-85.333334-85.333334a85.469867 85.469867 0 0 0-78.165333 118.852267l-80.008533 79.223467a131.140267 131.140267 0 0 0-67.4816-19.114667c-24.746667 0-47.684267 7.2704-67.549867 19.1488L383.658667 270.5408c7.68-14.336 12.424533-30.481067 12.424533-47.8208 0-56.661333-46.011733-102.4-102.4-102.4a102.5024 102.5024 0 0 0-102.673067 102.4 102.7072 102.7072 0 0 0 142.574934 94.242133l67.447466 69.461334a131.754667 131.754667 0 0 0-17.8176 65.297066c0 7.406933 1.024 14.5408 2.184534 21.6064l-94.208 75.4688a118.203733 118.203733 0 0 0-59.5968-16.4864c-65.9456 0-119.466667 53.521067-119.466667 119.466667s53.521067 119.466667 119.466667 119.466667 119.466667-53.521067 119.466666-119.466667a118.101333 118.101333 0 0 0-12.970666-53.111467l76.936533-61.6448a132.5056 132.5056 0 0 0 67.140267 42.769067v90.5216c-49.220267 14.7456-85.333333 59.904-85.333334 113.902933 0 65.6384 53.486933 119.466667 119.466667 119.466667 65.877333 0 119.466667-53.828267 119.466667-119.466667 0-53.998933-36.1472-99.1232-85.333334-113.902933v-90.5216a132.8128 132.8128 0 0 0 61.098667-35.5328l103.5264 107.554133a101.717333 101.717333 0 0 0-7.9872 39.560534c0 56.456533 45.943467 102.4 102.4 102.4s102.4-45.943467 102.4-102.4-45.943467-102.4-102.4-102.4z"></path></svg>
