<svg viewBox="0 0 1024 1024" version="1.1" xmlns="http://www.w3.org/2000/svg" width="1em" height="1em"><path d="M800 608h-0.032c-29.536 0-56.672 10.08-78.24 27.008l0.288-0.192-92.384-72a124.928 124.928 0 0 0 10.4-50.304v-0.544V512l0.032-1.472a67.2 67.2 0 0 0-0.448-7.648l0.032 0.288 53.216-17.6a127.648 127.648 0 1 0-20.832-69.856v0.224l-0.032 1.472c0 2.592 0.16 5.12 0.448 7.648l-0.032-0.288-53.216 17.6A127.648 127.648 0 0 0 512 383.968a184.192 184.192 0 0 0-22.144 1.696l0.96-0.096-27.2-61.6A126.688 126.688 0 0 0 512 224.32v-0.352V224a128 128 0 1 0-128 128c7.616-0.128 14.944-0.704 22.144-1.696l-0.96 0.096 27.2 61.6A126.688 126.688 0 0 0 384 511.648V512v-0.032c0.032 21.312 5.216 41.408 14.336 59.136l-0.352-0.736-102.816 91.2a128 128 0 1 0 56.8 106.4 129.312 129.312 0 0 0-14.336-59.136l0.352 0.736 102.816-91.2a126.528 126.528 0 0 0 71.008 21.568c29.6 0 56.832-10.08 78.496-26.976l-0.288 0.224 92.384 72A124.928 124.928 0 0 0 672 735.488v0.544V736a128 128 0 1 0 128-128z m0-256a64 64 0 1 1-64 64 64 64 0 0 1 64-64zM320 224a64 64 0 1 1 64 64 64 64 0 0 1-64-64zM224 832a64 64 0 1 1 64-64 64 64 0 0 1-64 64z m224-320a64 64 0 1 1 64 64 64 64 0 0 1-64-64z m352 288a64 64 0 1 1 64-64 64 64 0 0 1-64 64z"></path></svg>