<svg viewBox="0 0 1024 1024" version="1.1" xmlns="http://www.w3.org/2000/svg" width="1em" height="1em"><path d="M798 272.8c-19.8-18.9-46.7-29.5-74.7-29.5H300.7c-28 0-54.9 10.6-74.7 29.5-19.8 18.9-30.9 44.5-30.9 71.2v335.8c0 26.7 11.1 52.3 30.9 71.2 19.8 18.9 46.7 29.5 74.7 29.5h422.6c28 0 54.9-10.6 74.7-29.5 19.8-18.9 30.9-44.5 30.9-71.2V344.1c0-26.7-11.1-52.4-30.9-71.3zM406.4 713.5H300.7c-9.3 0-18.3-3.5-24.9-9.8-6.6-6.3-10.3-14.8-10.3-23.7V344.1c0-8.9 3.7-17.4 10.3-23.7 6.6-6.3 15.6-9.8 24.9-9.8h105.6v402.9z m352.1-33.6c0 8.9-3.7 17.4-10.3 23.7-6.6 6.3-15.6 9.8-24.9 9.8H476.8v-403h246.5c9.3 0 18.3 3.5 24.9 9.8 6.6 6.3 10.3 14.8 10.3 23.7v336z" fill="currentColor"></path></svg>