<?xml version="1.0" standalone="no"?><!DOCTYPE svg PUBLIC "-//W3C//DTD SVG 1.1//EN" "http://www.w3.org/Graphics/SVG/1.1/DTD/svg11.dtd"><svg height="540" node-id="1" sillyvg="true" template-height="540" template-width="960" version="1.1" viewBox="0 0 960 540" width="960" xmlns="http://www.w3.org/2000/svg" xmlns:xlink="http://www.w3.org/1999/xlink"><defs node-id="79"></defs><path d="M 0.00 0.00 L 960.00 0.00 L 960.00 540.00 L 0.00 540.00 Z" fill="none" node-id="83" stroke="none" target-height="540" target-width="960" target-x="0" target-y="0"></path><path d="M 0.00 0.00 L 960.00 0.00 L 960.00 540.00 L 0.00 540.00 Z" fill="#ffffff" fill-rule="nonzero" node-id="85" stroke="none" target-height="540" target-width="960" target-x="0" target-y="0"></path><g node-id="226"><path d="M 688.48 385.33 L 726.66 423.52 C 739.55 436.41 739.55 457.30 726.66 470.19 L 726.66 470.19 C 713.78 483.07 692.88 483.07 680.00 470.19 L 641.81 432.00 C 628.92 419.12 628.92 398.22 641.81 385.33 L 641.81 385.33 C 654.70 372.45 675.60 372.45 688.48 385.33 Z" fill="#69baf9" fill-rule="nonzero" group-id="1" id="矩形_13" node-id="5" stroke="none" target-height="110.62802" target-width="110.62897" target-x="628.924" target-y="372.447"></path><path d="M 221.63 91.28 L 324.87 194.52 C 335.02 204.67 335.02 221.14 324.87 231.29 L 324.87 231.29 C 314.72 241.44 298.25 241.44 288.10 231.29 L 184.86 128.05 C 174.71 117.90 174.71 101.44 184.86 91.28 L 184.86 91.28 C 195.02 81.13 211.48 81.13 221.63 91.28 Z" fill="#69baf9" fill-rule="nonzero" group-id="1" id="矩形_15" node-id="6" stroke="none" target-height="160.314" target-width="160.31499" target-x="174.709" target-y="81.13"></path><path d="M 309.63 58.28 L 412.87 161.52 C 423.02 171.67 423.02 188.14 412.87 198.29 L 412.87 198.29 C 402.72 208.44 386.25 208.44 376.10 198.29 L 272.86 95.05 C 262.71 84.90 262.71 68.44 272.86 58.28 L 272.86 58.28 C 283.02 48.13 299.48 48.13 309.63 58.28 Z" fill="#69baf9" fill-rule="nonzero" group-id="1" id="矩形_16" node-id="7" stroke="none" target-height="160.314" target-width="160.31497" target-x="262.709" target-y="48.13"></path><path d="M 689.84 291.88 L 747.12 349.16 C 754.73 356.77 754.73 369.12 747.12 376.73 L 747.12 376.73 C 739.50 384.35 727.16 384.35 719.54 376.73 L 662.27 319.46 C 654.65 311.84 654.65 299.50 662.27 291.88 L 662.27 291.88 C 669.88 284.27 682.23 284.27 689.84 291.88 Z" fill="#69baf9" fill-rule="nonzero" group-id="1" id="矩形_14" node-id="8" stroke="none" target-height="100.082" target-width="100.08203" target-x="654.652" target-y="284.266"></path><path d="M 722.00 270.00 C 722.00 403.65 613.65 512.00 480.00 512.00 C 346.35 512.00 238.00 403.65 238.00 270.00 C 238.00 136.35 346.35 28.00 480.00 28.00 C 613.65 28.00 722.00 136.35 722.00 270.00 Z" fill="#69baf9" fill-rule="nonzero" group-id="1" id="椭圆_1" node-id="9" stroke="none" target-height="484" target-width="484" target-x="238" target-y="28"></path></g><path d="M 556.00 463.00 L 458.00 463.00 C 455.24 463.00 453.00 460.76 453.00 458.00 C 453.00 455.24 455.24 453.00 458.00 453.00 L 556.00 453.00 C 558.76 453.00 561.00 455.24 561.00 458.00 C 561.00 460.76 558.76 463.00 556.00 463.00 Z" fill="#3d3d63" fill-rule="nonzero" node-id="94" stroke="none" target-height="10" target-width="108" target-x="453" target-y="453"></path><path d="M 589.00 487.00 L 480.00 487.00 C 477.24 487.00 475.00 484.76 475.00 482.00 C 475.00 479.24 477.24 477.00 480.00 477.00 L 589.00 477.00 C 591.76 477.00 594.00 479.24 594.00 482.00 C 594.00 484.76 591.76 487.00 589.00 487.00 Z" fill="#3d3d63" fill-rule="nonzero" node-id="96" stroke="none" target-height="10" target-width="119" target-x="475" target-y="477"></path><path d="M 403.00 463.00 L 336.00 463.00 C 333.24 463.00 331.00 460.76 331.00 458.00 C 331.00 455.24 333.24 453.00 336.00 453.00 L 403.00 453.00 C 405.76 453.00 408.00 455.24 408.00 458.00 C 408.00 460.76 405.76 463.00 403.00 463.00 Z" fill="#3d3d63" fill-rule="nonzero" node-id="98" stroke="none" target-height="10" target-width="77" target-x="331" target-y="453"></path><path d="M 701.00 487.00 L 645.00 487.00 C 642.24 487.00 640.00 484.76 640.00 482.00 C 640.00 479.24 642.24 477.00 645.00 477.00 L 701.00 477.00 C 703.76 477.00 706.00 479.24 706.00 482.00 C 706.00 484.76 703.76 487.00 701.00 487.00 Z" fill="#3d3d63" fill-rule="nonzero" node-id="100" stroke="none" target-height="10" target-width="66" target-x="640" target-y="477"></path><path d="M 439.00 487.00 L 283.00 487.00 C 280.24 487.00 278.00 484.76 278.00 482.00 C 278.00 479.24 280.24 477.00 283.00 477.00 L 439.00 477.00 C 441.76 477.00 444.00 479.24 444.00 482.00 C 444.00 484.76 441.76 487.00 439.00 487.00 Z" fill="#3d3d63" fill-rule="nonzero" node-id="102" stroke="none" target-height="10" target-width="166" target-x="278" target-y="477"></path><path d="M 431.00 463.00 C 429.68 463.00 428.40 462.47 427.46 461.53 C 426.53 460.60 426.00 459.32 426.00 458.00 C 426.00 456.68 426.53 455.40 427.46 454.46 C 428.39 453.53 429.68 453.00 431.00 453.00 C 432.32 453.00 433.61 453.53 434.54 454.46 C 435.47 455.40 436.00 456.68 436.00 458.00 C 436.00 459.32 435.47 460.60 434.54 461.53 C 433.61 462.47 432.32 463.00 431.00 463.00 Z" fill="#3d3d63" fill-rule="nonzero" node-id="104" stroke="none" target-height="10" target-width="10" target-x="426" target-y="453"></path><path d="M 621.00 487.00 C 619.69 487.00 618.40 486.47 617.46 485.53 C 616.53 484.60 616.00 483.32 616.00 482.00 C 616.00 480.68 616.53 479.40 617.46 478.46 C 618.39 477.53 619.68 477.00 621.00 477.00 C 622.32 477.00 623.61 477.53 624.54 478.46 C 625.47 479.40 626.00 480.69 626.00 482.00 C 626.00 483.32 625.47 484.60 624.54 485.53 C 623.60 486.47 622.31 487.00 621.00 487.00 Z" fill="#3d3d63" fill-rule="nonzero" node-id="106" stroke="none" target-height="10" target-width="10" target-x="616" target-y="477"></path><path d="M 802.00 312.21 C 801.49 312.21 800.98 312.02 800.59 311.63 L 779.37 290.41 C 778.59 289.63 778.59 288.37 779.37 287.59 L 800.59 266.37 C 801.37 265.59 802.63 265.59 803.41 266.37 L 824.63 287.59 C 825.41 288.37 825.41 289.63 824.63 290.41 L 803.41 311.63 C 803.02 312.02 802.51 312.21 802.00 312.21 Z M 783.62 289.00 L 802.00 307.38 L 820.38 289.00 L 802.00 270.62 L 783.62 289.00 Z" fill="#69baf9" fill-rule="nonzero" node-id="108" stroke="none" target-height="46.621002" target-width="46.81604" target-x="778.592" target-y="265.592"></path><path d="M 228.10 218.90 C 227.59 218.90 227.08 218.71 226.69 218.31 L 216.79 208.41 C 216.01 207.63 216.01 206.37 216.79 205.59 L 226.69 195.69 C 227.47 194.91 228.74 194.91 229.51 195.69 L 239.41 205.59 C 240.19 206.37 240.19 207.63 239.41 208.41 L 229.51 218.31 C 229.12 218.71 228.61 218.90 228.10 218.90 Z M 221.03 207.00 L 228.10 214.07 L 235.17 207.00 L 228.10 199.93 L 221.03 207.00 Z" fill="#69baf9" fill-rule="nonzero" node-id="110" stroke="none" target-height="23.992996" target-width="24.188004" target-x="216.007" target-y="194.907"></path><path d="M 691.00 328.90 C 690.47 328.90 689.96 328.69 689.59 328.31 L 679.69 318.41 C 678.91 317.63 678.91 316.37 679.69 315.59 L 689.59 305.69 C 690.37 304.91 691.63 304.91 692.41 305.69 L 702.31 315.59 C 703.09 316.37 703.09 317.63 702.31 318.41 L 692.41 328.31 C 692.04 328.69 691.53 328.90 691.00 328.90 Z M 683.93 317.00 L 691.00 324.07 L 698.07 317.00 L 691.00 309.93 L 683.93 317.00 Z" fill="#ffffff" fill-rule="nonzero" node-id="112" stroke="none" target-height="23.993988" target-width="24.187988" target-x="678.906" target-y="304.906"></path><path d="M 544.00 67.90 C 543.49 67.90 542.98 67.70 542.59 67.31 L 532.69 57.41 C 531.91 56.63 531.91 55.37 532.69 54.59 L 542.59 44.69 C 543.37 43.91 544.63 43.91 545.41 44.69 L 555.31 54.59 C 556.09 55.37 556.09 56.63 555.31 57.41 L 545.41 67.31 C 545.02 67.70 544.51 67.90 544.00 67.90 Z M 536.93 56.00 L 544.00 63.07 L 551.07 56.00 L 544.00 48.93 L 536.93 56.00 Z" fill="#ffffff" fill-rule="nonzero" node-id="114" stroke="none" target-height="23.993" target-width="24.187988" target-x="531.906" target-y="43.907"></path><path d="M 231.00 418.50 L 230.74 422.28 L 230.02 425.83 L 228.84 429.20 L 227.23 432.40 L 225.27 435.30 L 222.95 437.95 L 220.30 440.27 L 217.40 442.23 L 214.20 443.84 L 210.83 445.02 L 207.28 445.74 L 203.50 446.00 L 199.72 445.74 L 196.17 445.02 L 192.80 443.84 L 189.60 442.23 L 186.70 440.27 L 184.05 437.95 L 181.73 435.30 L 179.77 432.40 L 178.16 429.20 L 176.98 425.83 L 176.26 422.28 L 176.00 418.50 L 176.26 414.72 L 176.98 411.17 L 178.16 407.80 L 179.77 404.60 L 181.73 401.70 L 184.05 399.05 L 186.70 396.73 L 189.60 394.77 L 192.80 393.16 L 196.17 391.98 L 199.72 391.26 L 203.50 391.00 L 207.28 391.26 L 210.83 391.98 L 214.20 393.16 L 217.40 394.77 L 220.30 396.73 L 222.95 399.05 L 225.27 401.70 L 227.23 404.60 L 228.84 407.80 L 230.02 411.17 L 230.74 414.72 L 231.00 418.50 Z" fill="#ffffff" fill-rule="nonzero" group-id="2" node-id="117" stroke="none" target-height="55" target-width="55" target-x="176" target-y="391"></path><path d="M 203.50 446.00 L 199.73 445.74 L 196.18 445.01 L 192.81 443.84 L 189.61 442.23 L 186.71 440.27 L 184.06 437.94 L 181.73 435.29 L 179.77 432.38 L 178.16 429.19 L 176.99 425.82 L 176.26 422.27 L 176.00 418.50 L 176.26 414.73 L 176.99 411.18 L 178.16 407.81 L 179.77 404.62 L 181.73 401.71 L 184.06 399.06 L 186.71 396.73 L 189.61 394.77 L 192.81 393.16 L 196.18 391.99 L 199.73 391.26 L 203.50 391.00 L 207.27 391.26 L 210.82 391.99 L 214.19 393.16 L 217.39 394.77 L 220.29 396.73 L 222.94 399.06 L 225.27 401.71 L 227.23 404.62 L 228.84 407.81 L 230.01 411.18 L 230.74 414.73 L 231.00 418.50 L 230.74 422.27 L 230.01 425.82 L 228.84 429.19 L 227.23 432.38 L 225.27 435.29 L 222.94 437.94 L 220.29 440.27 L 217.39 442.23 L 214.19 443.84 L 210.82 445.01 L 207.27 445.74 L 203.50 446.00 Z M 203.50 395.00 L 200.28 395.22 L 197.24 395.84 L 194.36 396.85 L 191.63 398.22 L 189.15 399.90 L 186.89 401.89 L 184.90 404.15 L 183.22 406.63 L 181.85 409.36 L 180.84 412.24 L 180.22 415.28 L 180.00 418.50 L 180.22 421.72 L 180.84 424.76 L 181.85 427.64 L 183.22 430.37 L 184.90 432.85 L 186.89 435.11 L 189.15 437.10 L 191.63 438.78 L 194.36 440.15 L 197.24 441.16 L 200.28 441.78 L 203.50 442.00 L 206.72 441.78 L 209.76 441.16 L 212.64 440.15 L 215.37 438.78 L 217.85 437.10 L 220.11 435.11 L 222.10 432.85 L 223.78 430.37 L 225.15 427.64 L 226.16 424.76 L 226.78 421.72 L 227.00 418.50 L 226.78 415.28 L 226.16 412.24 L 225.15 409.36 L 223.78 406.63 L 222.10 404.15 L 220.11 401.89 L 217.85 399.90 L 215.37 398.22 L 212.64 396.85 L 209.76 395.84 L 206.72 395.22 L 203.50 395.00 Z" fill="#69baf9" fill-rule="nonzero" group-id="2" node-id="119" stroke="none" target-height="55" target-width="55" target-x="176" target-y="391"></path><path d="M 221.00 113.50 L 220.77 115.96 L 220.16 118.22 L 219.16 120.31 L 217.82 122.21 L 216.21 123.82 L 214.31 125.16 L 212.22 126.16 L 209.96 126.77 L 207.50 127.00 L 205.04 126.77 L 202.78 126.16 L 200.69 125.16 L 198.79 123.82 L 197.18 122.21 L 195.84 120.31 L 194.84 118.22 L 194.23 115.96 L 194.00 113.50 L 194.23 111.04 L 194.84 108.78 L 195.84 106.69 L 197.18 104.79 L 198.79 103.18 L 200.69 101.84 L 202.78 100.84 L 205.04 100.23 L 207.50 100.00 L 209.96 100.23 L 212.22 100.84 L 214.31 101.84 L 216.21 103.18 L 217.82 104.79 L 219.16 106.69 L 220.16 108.78 L 220.77 111.04 L 221.00 113.50 Z" fill="none" group-id="3" node-id="123" stroke="none" target-height="27" target-width="27" target-x="194" target-y="100"></path><path d="M 207.50 127.00 L 205.04 126.77 L 202.78 126.15 L 200.69 125.15 L 198.80 123.81 L 197.19 122.20 L 195.85 120.31 L 194.85 118.22 L 194.23 115.96 L 194.00 113.50 L 194.23 111.04 L 194.85 108.78 L 195.85 106.69 L 197.19 104.80 L 198.80 103.19 L 200.69 101.85 L 202.78 100.85 L 205.04 100.23 L 207.50 100.00 L 209.96 100.23 L 212.22 100.85 L 214.31 101.85 L 216.20 103.19 L 217.81 104.80 L 219.15 106.69 L 220.15 108.78 L 220.77 111.04 L 221.00 113.50 L 220.77 115.96 L 220.15 118.22 L 219.15 120.31 L 217.81 122.20 L 216.20 123.81 L 214.31 125.15 L 212.22 126.15 L 209.96 126.77 L 207.50 127.00 Z M 207.50 104.00 L 205.77 104.16 L 204.18 104.60 L 202.71 105.30 L 200.79 106.79 L 199.30 108.71 L 198.60 110.18 L 198.16 111.77 L 198.00 113.50 L 198.16 115.23 L 198.60 116.82 L 199.30 118.29 L 200.79 120.21 L 202.71 121.70 L 204.18 122.40 L 205.77 122.84 L 207.50 123.00 L 209.23 122.84 L 210.82 122.40 L 212.29 121.70 L 214.21 120.21 L 215.70 118.29 L 216.40 116.82 L 216.84 115.23 L 217.00 113.50 L 216.84 111.77 L 216.40 110.18 L 215.70 108.71 L 214.21 106.79 L 212.29 105.30 L 210.82 104.60 L 209.23 104.16 L 207.50 104.00 Z" fill="#ffffff" fill-rule="nonzero" group-id="3" node-id="125" stroke="none" target-height="27" target-width="27" target-x="194" target-y="100"></path><path d="M 333.00 450.50 L 332.77 452.96 L 332.16 455.22 L 331.16 457.31 L 329.82 459.21 L 328.21 460.82 L 326.31 462.16 L 324.22 463.16 L 321.96 463.77 L 319.50 464.00 L 317.04 463.77 L 314.78 463.16 L 312.69 462.16 L 310.79 460.82 L 309.18 459.21 L 307.84 457.31 L 306.84 455.22 L 306.23 452.96 L 306.00 450.50 L 306.23 448.04 L 306.84 445.78 L 307.84 443.69 L 309.18 441.79 L 310.79 440.18 L 312.69 438.84 L 314.78 437.84 L 317.04 437.23 L 319.50 437.00 L 321.96 437.23 L 324.22 437.84 L 326.31 438.84 L 328.21 440.18 L 329.82 441.79 L 331.16 443.69 L 332.16 445.78 L 332.77 448.04 L 333.00 450.50 Z" fill="none" group-id="4" node-id="129" stroke="none" target-height="27" target-width="27" target-x="306" target-y="437"></path><path d="M 319.50 464.00 L 317.04 463.77 L 314.78 463.15 L 312.69 462.15 L 310.80 460.81 L 309.19 459.20 L 307.85 457.31 L 306.85 455.22 L 306.23 452.96 L 306.00 450.50 L 306.23 448.04 L 306.85 445.78 L 307.85 443.69 L 309.19 441.80 L 310.80 440.19 L 312.69 438.85 L 314.78 437.85 L 317.04 437.23 L 319.50 437.00 L 321.96 437.23 L 324.22 437.85 L 326.31 438.85 L 328.20 440.19 L 329.81 441.80 L 331.15 443.69 L 332.15 445.78 L 332.77 448.04 L 333.00 450.50 L 332.77 452.96 L 332.15 455.22 L 331.15 457.31 L 329.81 459.20 L 328.20 460.81 L 326.31 462.15 L 324.22 463.15 L 321.96 463.77 L 319.50 464.00 Z M 319.50 441.00 L 317.77 441.16 L 316.18 441.60 L 314.71 442.30 L 312.79 443.79 L 311.30 445.71 L 310.60 447.18 L 310.16 448.77 L 310.00 450.50 L 310.16 452.23 L 310.60 453.82 L 311.30 455.29 L 312.79 457.21 L 314.71 458.70 L 316.18 459.40 L 317.77 459.84 L 319.50 460.00 L 321.23 459.84 L 322.82 459.40 L 324.29 458.70 L 326.21 457.21 L 327.70 455.29 L 328.40 453.82 L 328.84 452.23 L 329.00 450.50 L 328.84 448.77 L 328.40 447.18 L 327.70 445.71 L 326.21 443.79 L 324.29 442.30 L 322.82 441.60 L 321.23 441.16 L 319.50 441.00 Z" fill="#ffffff" fill-rule="nonzero" group-id="4" node-id="131" stroke="none" target-height="27" target-width="27" target-x="306" target-y="437"></path><path d="M 457.00 98.50 L 456.84 100.23 L 456.41 101.82 L 455.70 103.29 L 454.22 105.22 L 452.29 106.70 L 450.82 107.41 L 449.23 107.84 L 447.50 108.00 L 445.77 107.84 L 444.18 107.41 L 442.71 106.70 L 440.78 105.22 L 439.30 103.29 L 438.59 101.82 L 438.16 100.23 L 438.00 98.50 L 438.16 96.77 L 438.59 95.18 L 439.30 93.71 L 440.78 91.78 L 442.71 90.30 L 444.18 89.59 L 445.77 89.16 L 447.50 89.00 L 449.23 89.16 L 450.82 89.59 L 452.29 90.30 L 454.22 91.78 L 455.70 93.71 L 456.41 95.18 L 456.84 96.77 L 457.00 98.50 Z" fill="none" group-id="5" node-id="135" stroke="none" target-height="19" target-width="19" target-x="438" target-y="89"></path><path d="M 447.50 108.00 L 445.77 107.84 L 444.18 107.40 L 442.71 106.70 L 440.79 105.21 L 439.30 103.29 L 438.60 101.82 L 438.16 100.23 L 438.00 98.50 L 438.16 96.77 L 438.60 95.18 L 439.30 93.71 L 440.79 91.79 L 442.71 90.30 L 444.18 89.60 L 445.77 89.16 L 447.50 89.00 L 449.23 89.16 L 450.82 89.60 L 452.29 90.30 L 454.21 91.79 L 455.70 93.71 L 456.40 95.18 L 456.84 96.77 L 457.00 98.50 L 456.84 100.23 L 456.40 101.82 L 455.70 103.29 L 454.21 105.21 L 452.29 106.70 L 450.82 107.40 L 449.23 107.84 L 447.50 108.00 Z M 447.50 93.00 L 446.01 93.21 L 444.73 93.75 L 443.61 94.61 L 442.75 95.73 L 442.21 97.01 L 442.00 98.50 L 442.21 99.99 L 442.75 101.27 L 443.61 102.39 L 444.73 103.25 L 446.01 103.79 L 447.50 104.00 L 448.99 103.79 L 450.27 103.25 L 451.39 102.39 L 452.25 101.27 L 452.79 99.99 L 453.00 98.50 L 452.79 97.01 L 452.25 95.73 L 451.39 94.61 L 450.27 93.75 L 448.99 93.21 L 447.50 93.00 Z" fill="#ffffff" fill-rule="nonzero" group-id="5" node-id="137" stroke="none" target-height="19" target-width="19" target-x="438" target-y="89"></path><path d="M 692.00 49.00 L 691.75 51.74 L 691.06 54.25 L 689.95 56.57 L 688.46 58.68 L 686.68 60.46 L 684.57 61.95 L 682.25 63.06 L 679.74 63.75 L 677.00 64.00 L 674.26 63.75 L 671.75 63.06 L 669.43 61.95 L 667.32 60.46 L 665.54 58.68 L 664.05 56.57 L 662.94 54.25 L 662.25 51.74 L 662.00 49.00 L 662.25 46.26 L 662.94 43.75 L 664.05 41.43 L 665.54 39.32 L 667.32 37.54 L 669.43 36.05 L 671.75 34.94 L 674.26 34.25 L 677.00 34.00 L 679.74 34.25 L 682.25 34.94 L 684.57 36.05 L 686.68 37.54 L 688.46 39.32 L 689.95 41.43 L 691.06 43.75 L 691.75 46.26 L 692.00 49.00 Z" fill="none" group-id="6" node-id="141" stroke="none" target-height="30" target-width="30" target-x="662" target-y="34"></path><path d="M 677.00 64.00 L 674.27 63.74 L 671.76 63.06 L 669.44 61.95 L 667.33 60.46 L 665.54 58.67 L 664.05 56.56 L 662.94 54.24 L 662.26 51.73 L 662.00 49.00 L 662.26 46.27 L 662.94 43.76 L 664.05 41.44 L 665.54 39.33 L 667.33 37.54 L 669.44 36.05 L 671.76 34.94 L 674.27 34.26 L 677.00 34.00 L 679.73 34.26 L 682.24 34.94 L 684.56 36.05 L 686.67 37.54 L 688.46 39.33 L 689.95 41.44 L 691.06 43.76 L 691.74 46.27 L 692.00 49.00 L 691.74 51.73 L 691.06 54.24 L 689.95 56.56 L 688.46 58.67 L 686.67 60.46 L 684.56 61.95 L 682.24 63.06 L 679.73 63.74 L 677.00 64.00 Z M 677.00 38.00 L 675.00 38.19 L 673.16 38.69 L 671.45 39.50 L 669.91 40.60 L 668.60 41.91 L 667.50 43.45 L 666.69 45.16 L 666.19 47.00 L 666.00 49.00 L 666.19 51.00 L 666.69 52.84 L 667.50 54.55 L 668.60 56.09 L 669.91 57.40 L 671.45 58.50 L 673.16 59.31 L 675.00 59.81 L 677.00 60.00 L 679.00 59.81 L 680.84 59.31 L 682.55 58.50 L 684.09 57.40 L 685.40 56.09 L 686.50 54.55 L 687.31 52.84 L 687.81 51.00 L 688.00 49.00 L 687.81 47.00 L 687.31 45.16 L 686.50 43.45 L 685.40 41.91 L 684.09 40.60 L 682.55 39.50 L 680.84 38.69 L 679.00 38.19 L 677.00 38.00 Z" fill="#69baf9" fill-rule="nonzero" group-id="6" node-id="143" stroke="none" target-height="30" target-width="30" target-x="662" target-y="34"></path><path d="M 377.00 37.00 L 376.67 39.41 L 375.77 41.54 L 374.36 43.36 L 372.54 44.77 L 370.41 45.67 L 368.00 46.00 L 365.59 45.67 L 363.46 44.77 L 361.64 43.36 L 360.23 41.54 L 359.33 39.41 L 359.00 37.00 L 359.33 34.59 L 360.23 32.46 L 361.64 30.64 L 363.46 29.23 L 365.59 28.33 L 368.00 28.00 L 370.41 28.33 L 372.54 29.23 L 374.36 30.64 L 375.77 32.46 L 376.67 34.59 L 377.00 37.00 Z" fill="none" group-id="7" node-id="147" stroke="none" target-height="18" target-width="18" target-x="359" target-y="28"></path><path d="M 368.00 46.00 L 365.59 45.67 L 363.46 44.77 L 361.64 43.36 L 360.23 41.54 L 359.33 39.41 L 359.00 37.00 L 359.33 34.59 L 360.23 32.46 L 361.64 30.64 L 363.46 29.23 L 365.59 28.33 L 368.00 28.00 L 370.41 28.33 L 372.54 29.23 L 374.36 30.64 L 375.77 32.46 L 376.67 34.59 L 377.00 37.00 L 376.67 39.41 L 375.77 41.54 L 374.36 43.36 L 372.54 44.77 L 370.41 45.67 L 368.00 46.00 Z M 368.00 32.00 L 366.64 32.19 L 365.48 32.68 L 364.47 33.47 L 363.68 34.48 L 363.19 35.64 L 363.00 37.00 L 363.19 38.36 L 363.68 39.52 L 364.47 40.53 L 365.48 41.32 L 366.64 41.81 L 368.00 42.00 L 369.36 41.81 L 370.52 41.32 L 371.53 40.53 L 372.32 39.52 L 372.81 38.36 L 373.00 37.00 L 372.81 35.64 L 372.32 34.48 L 371.53 33.47 L 370.52 32.68 L 369.36 32.19 L 368.00 32.00 Z" fill="#69baf9" fill-rule="nonzero" group-id="7" node-id="149" stroke="none" target-height="18" target-width="18" target-x="359" target-y="28"></path><path d="M 722.00 200.00 L 721.75 202.74 L 721.06 205.25 L 719.95 207.57 L 718.46 209.68 L 716.68 211.46 L 714.57 212.95 L 712.25 214.06 L 709.74 214.75 L 707.00 215.00 L 704.26 214.75 L 701.75 214.06 L 699.43 212.95 L 697.32 211.46 L 695.54 209.68 L 694.05 207.57 L 692.94 205.25 L 692.25 202.74 L 692.00 200.00 L 692.25 197.26 L 692.94 194.75 L 694.05 192.43 L 695.54 190.32 L 697.32 188.54 L 699.43 187.05 L 701.75 185.94 L 704.26 185.25 L 707.00 185.00 L 709.74 185.25 L 712.25 185.94 L 714.57 187.05 L 716.68 188.54 L 718.46 190.32 L 719.95 192.43 L 721.06 194.75 L 721.75 197.26 L 722.00 200.00 Z" fill="none" group-id="8" node-id="153" stroke="none" target-height="30" target-width="30" target-x="692" target-y="185"></path><path d="M 707.00 215.00 L 704.27 214.74 L 701.76 214.06 L 699.44 212.95 L 697.33 211.46 L 695.54 209.67 L 694.05 207.56 L 692.94 205.24 L 692.26 202.73 L 692.00 200.00 L 692.26 197.27 L 692.94 194.76 L 694.05 192.44 L 695.54 190.33 L 697.33 188.54 L 699.44 187.05 L 701.76 185.94 L 704.27 185.26 L 707.00 185.00 L 709.73 185.26 L 712.24 185.94 L 714.56 187.05 L 716.67 188.54 L 718.46 190.33 L 719.95 192.44 L 721.06 194.76 L 721.74 197.27 L 722.00 200.00 L 721.74 202.73 L 721.06 205.24 L 719.95 207.56 L 718.46 209.67 L 716.67 211.46 L 714.56 212.95 L 712.24 214.06 L 709.73 214.74 L 707.00 215.00 Z M 707.00 189.00 L 705.00 189.19 L 703.16 189.69 L 701.45 190.50 L 699.91 191.60 L 698.60 192.91 L 697.50 194.45 L 696.69 196.16 L 696.19 198.00 L 696.00 200.00 L 696.19 202.00 L 696.69 203.84 L 697.50 205.55 L 698.60 207.09 L 699.91 208.40 L 701.45 209.50 L 703.16 210.31 L 705.00 210.81 L 707.00 211.00 L 709.00 210.81 L 710.84 210.31 L 712.55 209.50 L 714.09 208.40 L 715.40 207.09 L 716.50 205.55 L 717.31 203.84 L 717.81 202.00 L 718.00 200.00 L 717.81 198.00 L 717.31 196.16 L 716.50 194.45 L 715.40 192.91 L 714.09 191.60 L 712.55 190.50 L 710.84 189.69 L 709.00 189.19 L 707.00 189.00 Z" fill="#ffffff" fill-rule="nonzero" group-id="8" node-id="155" stroke="none" target-height="30" target-width="30" target-x="692" target-y="185"></path><path d="M 678.00 177.06 L 645.47 382.50 L 644.54 386.53 L 643.15 390.24 L 641.31 393.67 L 639.04 396.83 L 636.43 399.63 L 633.47 402.08 L 630.22 404.14 L 626.76 405.75 L 623.04 406.94 L 619.21 407.63 L 615.26 407.80 L 611.14 407.44 L 306.93 359.26 L 302.91 358.33 L 299.20 356.95 L 295.77 355.10 L 292.60 352.83 L 289.81 350.22 L 287.36 347.26 L 285.30 344.02 L 283.68 340.55 L 282.50 336.84 L 281.81 333.01 L 281.63 329.05 L 282.00 324.94 L 314.53 119.50 L 315.46 115.47 L 316.85 111.76 L 318.69 108.33 L 320.96 105.17 L 323.57 102.37 L 326.53 99.92 L 329.78 97.86 L 333.24 96.25 L 336.96 95.06 L 340.79 94.37 L 344.74 94.20 L 348.86 94.56 L 653.07 142.74 L 657.09 143.67 L 660.80 145.05 L 664.23 146.90 L 667.40 149.17 L 670.19 151.78 L 672.64 154.74 L 674.70 157.98 L 676.32 161.45 L 677.50 165.16 L 678.19 169.00 L 678.37 172.95 L 678.00 177.06 Z" fill="#ffc670" fill-rule="nonzero" group-id="9" node-id="159" stroke="none" target-height="313.60718" target-width="396.73254" target-x="281.63385" target-y="94.19673"></path><path d="M 615.86 407.81 L 613.50 407.72 L 611.14 407.44 L 306.93 359.26 L 302.91 358.33 L 299.21 356.95 L 295.78 355.10 L 292.62 352.83 L 289.82 350.22 L 287.37 347.25 L 285.31 344.01 L 283.69 340.54 L 282.50 336.83 L 281.81 332.99 L 281.64 329.04 L 282.00 324.93 L 314.53 119.50 L 315.35 115.85 L 316.52 112.48 L 318.05 109.34 L 319.95 106.42 L 322.17 103.72 L 324.65 101.34 L 327.38 99.27 L 330.39 97.49 L 333.57 96.08 L 336.91 95.05 L 340.42 94.42 L 344.14 94.19 L 346.50 94.28 L 348.86 94.56 L 653.07 142.74 L 657.09 143.67 L 660.79 145.05 L 664.22 146.90 L 667.38 149.17 L 670.18 151.78 L 672.63 154.75 L 674.69 157.99 L 676.31 161.46 L 677.50 165.17 L 678.19 169.00 L 678.37 172.96 L 678.00 177.06 L 645.47 382.50 L 644.65 386.14 L 643.48 389.52 L 641.95 392.66 L 640.05 395.58 L 637.83 398.28 L 635.35 400.66 L 632.62 402.73 L 629.61 404.51 L 626.43 405.92 L 623.09 406.95 L 619.58 407.58 L 615.86 407.81 Z M 344.14 110.19 L 341.85 110.38 L 339.72 110.89 L 337.73 111.73 L 335.89 112.87 L 334.27 114.25 L 332.86 115.90 L 331.72 117.74 L 330.88 119.76 L 330.34 122.00 L 297.80 327.44 L 297.64 330.00 L 297.90 332.41 L 298.59 334.71 L 299.65 336.87 L 301.04 338.78 L 302.76 340.46 L 304.74 341.83 L 306.95 342.82 L 309.44 343.46 L 613.64 391.64 L 615.86 391.81 L 618.15 391.63 L 620.28 391.11 L 622.27 390.27 L 624.11 389.14 L 625.73 387.75 L 627.14 386.11 L 628.28 384.26 L 629.12 382.24 L 629.66 380.00 L 662.20 174.56 L 662.36 172.00 L 662.10 169.59 L 661.42 167.29 L 660.35 165.13 L 658.96 163.22 L 657.24 161.54 L 655.26 160.18 L 653.05 159.18 L 650.56 158.54 L 346.36 110.36 L 344.14 110.19 Z" fill="#3d3d63" fill-rule="nonzero" group-id="9" node-id="161" stroke="none" target-height="313.62817" target-width="396.72952" target-x="281.63547" target-y="94.186226"></path><path d="M 680.00 174.00 L 680.00 382.00 L 679.71 386.12 L 678.93 390.00 L 677.64 393.68 L 675.89 397.16 L 673.75 400.33 L 671.21 403.21 L 668.33 405.75 L 665.16 407.89 L 661.68 409.64 L 658.00 410.93 L 654.12 411.71 L 650.00 412.00 L 342.00 412.00 L 337.88 411.71 L 334.00 410.93 L 330.32 409.64 L 326.84 407.89 L 323.67 405.75 L 320.79 403.21 L 318.25 400.33 L 316.11 397.16 L 314.36 393.68 L 313.07 390.00 L 312.29 386.12 L 312.00 382.00 L 312.00 174.00 L 312.29 169.88 L 313.07 166.00 L 314.36 162.32 L 316.11 158.84 L 318.25 155.67 L 320.79 152.79 L 323.67 150.25 L 326.84 148.11 L 330.32 146.36 L 334.00 145.07 L 337.88 144.29 L 342.00 144.00 L 650.00 144.00 L 654.12 144.29 L 658.00 145.07 L 661.68 146.36 L 665.16 148.11 L 668.33 150.25 L 671.21 152.79 L 673.75 155.67 L 675.89 158.84 L 677.64 162.32 L 678.93 166.00 L 679.71 169.88 L 680.00 174.00 Z" fill="#efedeb" fill-rule="nonzero" group-id="10,11" node-id="166" stroke="none" target-height="268" target-width="368" target-x="312" target-y="144"></path><path d="M 650.00 412.00 L 342.00 412.00 L 337.89 411.71 L 334.01 410.92 L 330.33 409.64 L 326.85 407.89 L 323.68 405.74 L 320.80 403.20 L 318.26 400.32 L 316.11 397.15 L 314.36 393.67 L 313.08 389.99 L 312.29 386.11 L 312.00 382.00 L 312.00 174.00 L 312.29 169.89 L 313.08 166.01 L 314.36 162.33 L 316.11 158.85 L 318.26 155.68 L 320.80 152.80 L 323.68 150.26 L 326.85 148.11 L 330.33 146.36 L 334.01 145.08 L 337.89 144.29 L 342.00 144.00 L 650.00 144.00 L 654.11 144.29 L 657.99 145.08 L 661.67 146.36 L 665.15 148.11 L 668.32 150.26 L 671.20 152.80 L 673.75 155.68 L 675.89 158.85 L 677.64 162.33 L 678.92 166.01 L 679.71 169.89 L 680.00 174.00 L 680.00 382.00 L 679.71 386.11 L 678.92 389.99 L 677.64 393.67 L 675.89 397.15 L 673.75 400.32 L 671.20 403.20 L 668.32 405.74 L 665.15 407.89 L 661.67 409.64 L 657.99 410.92 L 654.11 411.71 L 650.00 412.00 Z M 342.00 160.00 L 339.45 160.24 L 337.11 160.88 L 334.94 161.91 L 332.97 163.31 L 331.31 164.97 L 329.91 166.94 L 328.88 169.11 L 328.24 171.45 L 328.00 174.00 L 328.00 382.00 L 328.24 384.55 L 328.88 386.89 L 329.91 389.06 L 331.31 391.03 L 332.97 392.69 L 334.94 394.09 L 337.11 395.12 L 339.45 395.76 L 342.00 396.00 L 650.00 396.00 L 652.55 395.76 L 654.89 395.12 L 657.06 394.09 L 659.03 392.69 L 660.69 391.03 L 662.09 389.06 L 663.12 386.89 L 663.76 384.55 L 664.00 382.00 L 664.00 174.00 L 663.76 171.45 L 663.12 169.11 L 662.09 166.94 L 660.69 164.97 L 659.03 163.31 L 657.06 161.91 L 654.89 160.88 L 652.55 160.24 L 650.00 160.00 L 342.00 160.00 Z" fill="#3d3d63" fill-rule="nonzero" group-id="10,11" node-id="168" stroke="none" target-height="268" target-width="368" target-x="312" target-y="144"></path><path d="M 312.00 197.00 L 680.00 197.00 L 680.00 260.00 L 312.00 260.00 Z" fill="#8f969e" fill-rule="nonzero" group-id="10,12" node-id="172" stroke="none" target-height="63" target-width="368" target-x="312" target-y="197"></path><path d="M 680.00 260.00 L 312.00 260.00 L 312.00 197.00 L 680.00 197.00 L 680.00 260.00 Z M 328.00 244.00 L 664.00 244.00 L 664.00 213.00 L 328.00 213.00 L 328.00 244.00 Z" fill="#3d3d63" fill-rule="nonzero" group-id="10,12" node-id="174" stroke="none" target-height="63" target-width="368" target-x="312" target-y="197"></path><path d="M 450.50 315.00 L 354.90 315.00 L 352.76 314.71 L 350.86 313.91 L 349.25 312.66 L 348.00 311.04 L 347.19 309.14 L 346.90 307.00 L 347.19 304.86 L 348.00 302.96 L 349.25 301.34 L 350.87 300.09 L 352.76 299.29 L 354.90 299.00 L 450.50 299.00 L 452.64 299.29 L 454.54 300.09 L 456.16 301.34 L 457.41 302.96 L 458.21 304.86 L 458.50 307.00 L 458.21 309.14 L 457.41 311.04 L 456.16 312.66 L 454.54 313.91 L 452.64 314.71 L 450.50 315.00 Z" fill="#3d3d63" fill-rule="nonzero" group-id="10,13" node-id="178" stroke="none" target-height="16" target-width="111.59717" target-x="346.90283" target-y="299"></path><path d="M 389.50 347.00 L 354.90 347.00 L 352.76 346.71 L 350.86 345.91 L 349.25 344.66 L 348.00 343.04 L 347.19 341.14 L 346.90 339.00 L 347.19 336.86 L 348.00 334.96 L 349.25 333.34 L 350.87 332.09 L 352.76 331.29 L 354.90 331.00 L 389.50 331.00 L 391.64 331.29 L 393.54 332.09 L 395.16 333.34 L 396.41 334.96 L 397.21 336.86 L 397.50 339.00 L 397.21 341.14 L 396.41 343.04 L 395.16 344.66 L 393.54 345.91 L 391.64 346.71 L 389.50 347.00 Z" fill="#3d3d63" fill-rule="nonzero" group-id="10,13" node-id="180" stroke="none" target-height="16" target-width="50.597168" target-x="346.90283" target-y="331"></path><path d="M 450.33 347.00 L 415.74 347.00 L 413.59 346.71 L 411.70 345.91 L 410.08 344.66 L 408.83 343.04 L 408.03 341.14 L 407.74 339.00 L 408.03 336.86 L 408.83 334.96 L 410.08 333.34 L 411.70 332.09 L 413.59 331.29 L 415.74 331.00 L 450.33 331.00 L 452.48 331.29 L 454.37 332.09 L 455.99 333.34 L 457.24 334.96 L 458.04 336.86 L 458.33 339.00 L 458.04 341.14 L 457.24 343.04 L 455.99 344.66 L 454.37 345.91 L 452.48 346.71 L 450.33 347.00 Z" fill="#3d3d63" fill-rule="nonzero" group-id="10,13" node-id="182" stroke="none" target-height="16" target-width="50.597168" target-x="407.73584" target-y="331"></path><path d="M 511.17 347.00 L 476.57 347.00 L 474.43 346.71 L 472.53 345.91 L 470.91 344.66 L 469.66 343.04 L 468.86 341.14 L 468.57 339.00 L 468.86 336.86 L 469.66 334.96 L 470.91 333.34 L 472.53 332.09 L 474.43 331.29 L 476.57 331.00 L 511.17 331.00 L 513.31 331.29 L 515.20 332.09 L 516.82 333.34 L 518.07 334.96 L 518.88 336.86 L 519.17 339.00 L 518.88 341.14 L 518.07 343.04 L 516.82 344.66 L 515.20 345.91 L 513.31 346.71 L 511.17 347.00 Z" fill="#3d3d63" fill-rule="nonzero" group-id="10,13" node-id="184" stroke="none" target-height="16" target-width="50.597168" target-x="468.56885" target-y="331"></path><path d="M 572.00 347.00 L 537.40 347.00 L 535.26 346.71 L 533.36 345.91 L 531.75 344.66 L 530.50 343.04 L 529.69 341.14 L 529.40 339.00 L 529.69 336.86 L 530.50 334.96 L 531.75 333.34 L 533.37 332.09 L 535.26 331.29 L 537.40 331.00 L 572.00 331.00 L 574.14 331.29 L 576.04 332.09 L 577.66 333.34 L 578.91 334.96 L 579.71 336.86 L 580.00 339.00 L 579.71 341.14 L 578.91 343.04 L 577.66 344.66 L 576.04 345.91 L 574.14 346.71 L 572.00 347.00 Z" fill="#3d3d63" fill-rule="nonzero" group-id="10,13" node-id="186" stroke="none" target-height="16" target-width="50.597168" target-x="529.40283" target-y="331"></path><path d="M 655.36 295.25 L 655.12 298.69 L 654.46 301.92 L 653.40 304.98 L 651.94 307.89 L 650.15 310.53 L 648.04 312.93 L 645.63 315.05 L 642.99 316.83 L 640.09 318.29 L 637.03 319.36 L 633.79 320.01 L 630.36 320.25 L 626.93 320.01 L 623.69 319.36 L 620.63 318.29 L 617.73 316.83 L 615.09 315.05 L 612.68 312.93 L 610.57 310.53 L 608.78 307.89 L 607.32 304.98 L 606.26 301.92 L 605.60 298.69 L 605.36 295.25 L 605.60 291.82 L 606.26 288.59 L 607.32 285.52 L 608.78 282.62 L 610.57 279.98 L 612.68 277.58 L 615.09 275.46 L 617.73 273.68 L 620.63 272.22 L 623.69 271.15 L 626.93 270.49 L 630.36 270.25 L 633.79 270.49 L 637.03 271.15 L 640.09 272.22 L 642.99 273.68 L 645.63 275.46 L 648.04 277.58 L 650.15 279.98 L 651.94 282.62 L 653.40 285.52 L 654.46 288.59 L 655.12 291.82 L 655.36 295.25 Z" fill="#ffffff" fill-rule="nonzero" group-id="10,14" node-id="190" stroke="none" target-height="50" target-width="50" target-x="605.36" target-y="270.253"></path><path d="M 630.36 320.25 L 626.93 320.01 L 623.70 319.36 L 620.64 318.29 L 617.74 316.82 L 615.10 315.04 L 612.69 312.92 L 610.57 310.52 L 608.79 307.88 L 607.33 304.97 L 606.26 301.91 L 605.60 298.68 L 605.36 295.25 L 605.60 291.82 L 606.26 288.59 L 607.33 285.53 L 608.79 282.63 L 610.57 279.99 L 612.69 277.58 L 615.10 275.47 L 617.74 273.68 L 620.64 272.22 L 623.70 271.15 L 626.93 270.49 L 630.36 270.25 L 633.79 270.49 L 637.02 271.15 L 640.08 272.22 L 642.98 273.68 L 645.62 275.47 L 648.03 277.58 L 650.15 279.99 L 651.93 282.63 L 653.39 285.53 L 654.46 288.59 L 655.12 291.82 L 655.36 295.25 L 655.12 298.68 L 654.46 301.91 L 653.39 304.97 L 651.93 307.88 L 650.15 310.52 L 648.03 312.92 L 645.62 315.04 L 642.98 316.82 L 640.08 318.29 L 637.02 319.36 L 633.79 320.01 L 630.36 320.25 Z M 630.36 282.25 L 627.99 282.47 L 625.82 283.07 L 623.80 284.03 L 621.98 285.32 L 620.43 286.87 L 619.14 288.70 L 618.17 290.71 L 617.58 292.88 L 617.36 295.25 L 617.58 297.62 L 618.17 299.79 L 619.14 301.81 L 620.43 303.63 L 621.98 305.18 L 623.80 306.48 L 625.82 307.44 L 627.99 308.03 L 630.36 308.25 L 632.73 308.03 L 634.90 307.44 L 636.92 306.48 L 638.74 305.18 L 640.29 303.63 L 641.58 301.81 L 642.55 299.79 L 643.14 297.62 L 643.36 295.25 L 643.14 292.88 L 642.55 290.71 L 641.58 288.70 L 640.29 286.87 L 638.74 285.32 L 636.92 284.03 L 634.90 283.07 L 632.73 282.47 L 630.36 282.25 Z" fill="#3d3d63" fill-rule="nonzero" group-id="10,14" node-id="192" stroke="none" target-height="50" target-width="50" target-x="605.36" target-y="270.253"></path><path d="M 328.00 375.00 L 664.00 375.00 L 664.00 375.00 L 664.00 380.00 L 663.73 382.92 L 663.00 385.60 L 661.82 388.08 L 660.23 390.32 L 658.32 392.23 L 656.08 393.82 L 653.60 395.00 L 650.92 395.73 L 648.00 396.00 L 344.00 396.00 L 341.08 395.73 L 338.40 395.00 L 335.92 393.82 L 333.68 392.23 L 331.77 390.32 L 330.18 388.08 L 329.00 385.60 L 328.27 382.92 L 328.00 380.00 L 328.00 375.00 L 328.00 375.00 Z" fill="#dbdbdb" fill-rule="nonzero" group-id="10" id="矩形_98" node-id="61" stroke="none" target-height="21" target-width="336" target-x="328" target-y="375"></path><path d="M 555.69 391.68 L 555.69 383.68 L 572.34 383.68 L 572.34 391.68 Z" fill="#b6bdc6" fill-rule="nonzero" group-id="10,15,16" node-id="198" stroke="none" target-height="8" target-width="16.64502" target-x="555.694" target-y="383.678"></path><path d="M 532.08 387.00 L 532.08 379.00 L 558.08 379.00 L 558.08 387.00 Z" fill="#b6bdc6" fill-rule="nonzero" group-id="10,15,16" node-id="200" stroke="none" target-height="8" target-width="26" target-x="532.079" target-y="379"></path><path d="M 508.97 390.62 L 508.97 382.62 L 527.72 382.62 L 527.72 390.62 Z" fill="#b6bdc6" fill-rule="nonzero" group-id="10,15,17" node-id="204" stroke="none" target-height="8" target-width="18.753998" target-x="508.967" target-y="382.623"></path><path d="M 486.41 387.00 L 486.41 379.00 L 512.41 379.00 L 512.41 387.00 Z" fill="#b6bdc6" fill-rule="nonzero" group-id="10,15,17" node-id="206" stroke="none" target-height="8" target-width="26" target-x="486.406" target-y="379"></path><path d="M 463.38 389.59 L 463.38 381.59 L 484.19 381.59 L 484.19 389.59 Z" fill="#b6bdc6" fill-rule="nonzero" group-id="10,15,18" node-id="210" stroke="none" target-height="8" target-width="20.812988" target-x="463.379" target-y="381.594"></path><path d="M 441.85 387.00 L 441.85 379.00 L 467.85 379.00 L 467.85 387.00 Z" fill="#b6bdc6" fill-rule="nonzero" group-id="10,15,18" node-id="212" stroke="none" target-height="8" target-width="26" target-x="441.847" target-y="379"></path><path d="M 416.65 388.54 L 416.65 380.54 L 439.57 380.54 L 439.57 388.54 Z" fill="#b6bdc6" fill-rule="nonzero" group-id="10,15,19" node-id="216" stroke="none" target-height="8" target-width="22.92099" target-x="416.651" target-y="380.54"></path><path d="M 396.17 387.00 L 396.17 379.00 L 422.17 379.00 L 422.17 387.00 Z" fill="#b6bdc6" fill-rule="nonzero" group-id="10,15,19" node-id="218" stroke="none" target-height="8" target-width="26" target-x="396.173" target-y="379"></path><path d="M 369.92 387.48 L 369.92 379.48 L 394.95 379.48 L 394.95 387.48 Z" fill="#b6bdc6" fill-rule="nonzero" group-id="10,15,20" node-id="222" stroke="none" target-height="8" target-width="25.031006" target-x="369.922" target-y="379.484"></path><path d="M 350.50 387.00 L 350.50 379.00 L 376.50 379.00 L 376.50 387.00 Z" fill="#b6bdc6" fill-rule="nonzero" group-id="10,15,20" node-id="224" stroke="none" target-height="8" target-width="26" target-x="350.5" target-y="379"></path></svg>