<svg viewBox="0 0 1024 1024" version="1.1" xmlns="http://www.w3.org/2000/svg" width="1em" height="1em"><path d="M195.1 344.1v335.8c0 26.7 11.1 52.3 30.9 71.2 19.8 18.9 46.7 29.5 74.7 29.5h422.6c28 0 54.9-10.6 74.7-29.5 19.8-18.9 30.9-44.5 30.9-71.2V344.1c0-26.7-11.1-52.3-30.9-71.2-19.8-18.9-46.7-29.5-74.7-29.5H300.7c-28 0-54.9 10.6-74.7 29.5-19.8 18.8-30.9 44.5-30.9 71.2z m422.5-33.6h105.6c9.3 0 18.3 3.5 24.9 9.8 6.6 6.3 10.3 14.8 10.3 23.7v335.8c0 8.9-3.7 17.4-10.3 23.7-6.6 6.3-15.6 9.8-24.9 9.8H617.6V310.5z m-352.1 33.6c0-8.9 3.7-17.4 10.3-23.7 6.6-6.3 15.6-9.8 24.9-9.8h246.5v403H300.7c-9.3 0-18.3-3.5-24.9-9.8-6.6-6.3-10.3-14.8-10.3-23.7v-336z" fill="currentColor"></path></svg>