<svg viewBox="0 0 1024 1024" version="1.1" xmlns="http://www.w3.org/2000/svg" width="1em" height="1em"><path d="M253.308 397.123c-4.915 11.788-18.416 17.438-29.711 12.28-12.037-4.916-17.438-18.667-12.531-30.205 7.123-16.209 15.231-31.19 24.804-45.928 9.33-13.995 20.875-27.504 33.398-40.028 12.037-12.523 25.296-23.082 40.277-33.147 13.752-9.58 29.218-18.174 45.921-24.804 11.294-4.916 25.046 0.485 29.711 12.273 4.916 11.302-0.735 25.054-12.272 30.212-12.773 5.401-26.032 12.523-37.577 20.381-12.03 8.101-23.575 17.681-33.397 27.747l-0.493-0.242c-9.823 10.316-19.152 21.36-27.505 33.64-8.102 11.788-14.974 24.562-20.625 37.821z m528.963 354.602l165.76 166.253c15.466 14.98 15.466 39.291 0 54.272-14.738 14.738-39.291 14.738-54.029 0L727.999 806.247c-31.927 26.761-68.267 48.863-107.559 65.566-49.364 20.132-103.637 30.94-159.874 30.94-56.479 0-110.751-10.809-159.866-30.94h-0.242c-50.836-21.86-97.493-52.308-135.798-91.106-38.806-38.313-69.253-84.477-90.37-136.049l-1.229-1.722C53.415 593.58 42.112 540.044 42.112 484.3c0-55.995 11.303-110.016 32.177-159.373 21.117-51.814 51.564-97.744 90.37-136.299 75.39-75.389 179.997-122.782 295.907-122.782 56.237 0 110.51 11.545 159.624 32.169h0.25c51.322 21.117 97.485 52.308 135.798 90.613l2.208 2.458c37.577 37.578 67.781 83.248 88.899 133.591l0.492 1.964c20.139 49.114 31.184 102.409 31.184 157.659 0 56.972-11.538 110.509-31.676 160.358-16.452 39.293-38.556 75.149-65.074 107.067zM591.215 168.497c-39.785-15.967-83.741-25.54-130.648-25.54-94.542 0-179.754 38.063-241.392 100.436-31.927 31.19-57.466 69.01-74.654 110.016-16.452 41.014-25.539 84.476-25.539 130.891 0 45.679 9.087 89.634 24.804 129.169l0.735 1.479c17.431 41.992 42.728 79.562 74.654 111.237 30.939 31.434 69.002 56.974 110.509 74.653 40.513 16.453 84.469 25.54 130.883 25.54 46.907 0 90.371-9.087 130.648-25.54 41.499-17.68 79.076-42.727 110.258-73.424l0.494-1.229h0.492c31.184-30.94 56.48-69.003 73.918-111.237 16.453-39.783 25.783-83.74 25.783-130.647 0-45.185-8.595-88.899-25.047-128.19l-0.736-1.964c-16.702-41.256-41.748-78.09-72.446-109.03l-1.964-1.722c-31.19-31.676-69.253-57.215-110.752-74.654v-0.244zM685.264 484.3c0-12.03 10.073-22.589 23.09-22.589 12.766 0 22.839 10.559 22.839 22.589 0 35.604-6.88 71.218-20.632 104.122l-0.243 0.493c-13.267 31.919-32.661 61.88-58.201 87.671-26.274 25.781-55.994 45.184-87.428 58.443-33.397 13.51-69.002 20.382-104.122 20.382-12.522 0-23.082-10.316-23.082-23.082 0-12.522 10.559-22.839 23.082-22.839 29.227 0 58.938-5.895 86.199-17.439 26.275-10.558 51.078-27.01 72.688-48.128 21.118-21.116 37.327-45.678 48.621-71.953l0.735-0.985c10.811-27.748 16.454-56.974 16.454-86.685z"></path></svg>