<svg xmlns="http://www.w3.org/2000/svg" viewBox="0 0 36 36">
    <path d="M23.25,3.75 C23.6642136,3.75 24,4.08578644 24,4.5 L24,6 C24,6.41421356 23.6642136,6.75 23.25,6.75 L19.4985,6.75 L19.4999269,7.59283152 C25.4194297,8.3309462 30,13.3805483 30,19.5 C30,26.127417 24.627417,31.5 18,31.5 C11.372583,31.5 6,26.127417 6,19.5 C6,13.3810672 10.5797936,8.33180251 16.4985674,7.59301936 L16.4985,6.75 L12.75,6.75 C12.3357864,6.75 12,6.41421356 12,6 L12,4.5 C12,4.08578644 12.3357864,3.75 12.75,3.75 L23.25,3.75 Z M21.8161824,13.5795859 L21.7123106,13.6663691 L18.1225496,17.2532807 L18,17.25 L18,17.25 C16.7573593,17.25 15.75,18.2573593 15.75,19.5 C15.75,20.7426407 16.7573593,21.75 18,21.75 C19.2426407,21.75 20.25,20.7426407 20.25,19.5 L20.244,19.3755 L23.8336309,15.7876894 C24.0939805,15.5273399 24.1229082,15.1232033 23.9204141,14.8309011 L23.8336309,14.7270292 L22.7729708,13.6663691 C22.5451649,13.4385632 22.2072721,13.3879397 21.9305387,13.5144985 L21.8161824,13.5795859 Z" fill-rule="evenodd"></path>
</svg>