<svg viewBox="0 0 1024 1024" version="1.1" xmlns="http://www.w3.org/2000/svg" width="1em" height="1em"><path d="M512 288c-123.488 0-224 100.512-224 224 0 123.488 100.512 224 224 224s224-100.512 224-224C736 388.512 635.488 288 512 288zM512 672c-88.384 0-160-71.616-160-160s71.616-160 160-160 160 71.616 160 160S600.384 672 512 672zM512 224c17.664 0 32-14.336 32-32L544 128c0-17.664-14.336-32-32-32s-32 14.336-32 32l0 64C480 209.664 494.336 224 512 224zM512 800c-17.664 0-32 14.336-32 32l0 64c0 17.664 14.336 32 32 32s32-14.336 32-32l0-64C544 814.336 529.664 800 512 800zM760.864 308.32l45.248-45.248c12.512-12.512 12.512-32.736 0-45.248-12.512-12.512-32.736-12.512-45.248 0l-45.248 45.248c-12.512 12.512-12.512 32.736 0 45.248C728.128 320.832 748.384 320.832 760.864 308.32zM263.136 715.68l-45.248 45.248c-12.512 12.512-12.512 32.736 0 45.248s32.736 12.512 45.248 0l45.248-45.248c12.512-12.544 12.512-32.768 0-45.248C295.872 703.168 275.616 703.136 263.136 715.68zM224 512c0-17.664-14.336-32-32-32L128 480c-17.664 0-32 14.336-32 32s14.336 32 32 32l64 0C209.664 544 224 529.664 224 512zM896 480l-64 0c-17.664 0-32 14.336-32 32s14.336 32 32 32l64 0c17.664 0 32-14.336 32-32S913.664 480 896 480zM263.072 308.32c12.512 12.512 32.768 12.512 45.248 0 12.512-12.512 12.512-32.736 0-45.248l-45.248-45.248c-12.512-12.512-32.736-12.512-45.248 0-12.512 12.512-12.512 32.736 0 45.248L263.072 308.32zM760.928 715.616c-12.544-12.512-32.768-12.512-45.248 0-12.512 12.512-12.544 32.736 0 45.248l45.248 45.248c12.512 12.512 32.736 12.512 45.248 0s12.512-32.736 0-45.248L760.928 715.616z"></path></svg>