<svg viewBox="0 0 1024 1024" version="1.1" xmlns="http://www.w3.org/2000/svg" width="1em" height="1em"><path d="M682.197333 170.666667l-64.128 64H224l-6.144 0.256A74.666667 74.666667 0 0 0 149.333333 309.333333v95.573334l111.36-69.973334a96 96 0 0 1 128.341334 24.277334l4.053333 5.930666a96 96 0 0 1 6.954667 88.832l-3.370667 7.082667-51.541333 97.536a32 32 0 0 0 39.808 44.8l4.181333-1.962667 75.093333-42.368a32 32 0 0 1 35.242667 53.205334l-3.626667 2.432-75.306666 42.496a96 96 0 0 1-134.954667-122.325334l2.986667-6.186666 51.541333-97.536a32 32 0 0 0-41.130667-44.245334l-4.181333 2.218667L149.333333 480.512v234.368c0 41.216 33.450667 74.666667 74.666667 74.666667h576a74.666667 74.666667 0 0 0 74.666667-74.666667V402.901333L938.666667 339.029333v375.850667a138.666667 138.666667 0 0 1-138.666667 138.666667H224A138.666667 138.666667 0 0 1 85.333333 714.88V309.333333a138.666667 138.666667 0 0 1 130.816-138.453333L224 170.666667h458.197333z m221.269334-19.413334l5.546666 5.12 5.162667 5.546667a96.810667 96.810667 0 0 1-5.162667 131.413333l-182.656 182.314667a96 96 0 0 1-40.234666 23.978667l-99.285334 29.866666a42.666667 42.666667 0 0 1-52.906666-53.973333l31.530666-97.92c4.693333-14.506667 12.757333-27.733333 23.552-38.528l183.04-182.741333a96.853333 96.853333 0 0 1 131.413334-5.12z m-86.186667 50.346667l-183.04 182.784a32.042667 32.042667 0 0 0-7.850667 12.8l-19.072 59.306667 60.416-18.133334a32.085333 32.085333 0 0 0 13.397334-8.021333l182.613333-182.314667 3.2-3.669333a32.810667 32.810667 0 0 0-49.621333-42.752z"></path></svg>