<svg viewBox="0 0 1024 1024" version="1.1" xmlns="http://www.w3.org/2000/svg" width="1em" height="1em"><path d="M307.2 389.12V716.8h327.68V389.12H307.2z m0-40.96h327.68a40.96 40.96 0 0 1 40.96 40.96V716.8a40.96 40.96 0 0 1-40.96 40.96H307.2a40.96 40.96 0 0 1-40.96-40.96V389.12a40.96 40.96 0 0 1 40.96-40.96z" fill="currentColor"></path><path d="M409.6 303.104h-40.96a57.344 57.344 0 0 1 57.344-57.344h294.912a57.344 57.344 0 0 1 57.344 57.344v294.912a57.344 57.344 0 0 1-57.344 57.344V614.4a16.384 16.384 0 0 0 16.384-16.384V303.104a16.384 16.384 0 0 0-16.384-16.384H425.984a16.384 16.384 0 0 0-16.384 16.384z" fill="currentColor"></path></svg>