<svg viewBox="0 0 1024 1024" version="1.1" xmlns="http://www.w3.org/2000/svg" width="1em" height="1em"><path d="M928.032298 858.633718H761.487168c-15.331173 0-27.758204-12.422937-27.758204-27.75104 0-15.326057 12.42703-27.752064 27.758204-27.752065h138.787949V664.377456c0-15.328104 12.426007-27.751041 27.757181-27.751041 15.33015 0 27.757181 12.422937 27.757181 27.751041v166.505222c0 15.328104-12.42703 27.751041-27.757181 27.75104z m0-471.767693c-15.331173 0-27.757181-12.422937-27.757181-27.748994V220.358757H761.487168c-15.331173 0-27.758204-12.423961-27.758204-27.752064 0-15.322987 12.42703-27.752064 27.758204-27.752064h166.54513c15.33015 0 27.757181 12.429077 27.757181 27.752064v166.510338c0 15.326057-12.42703 27.748994-27.757181 27.748994zM261.84666 858.633718H95.30153c-15.33015 0-27.758204-12.422937-27.758204-27.75104V664.377456c0-15.328104 12.428054-27.751041 27.758204-27.751041 15.329127 0 27.758204 12.422937 27.758204 27.751041v138.753157h138.786926c15.33015 0 27.758204 12.426007 27.758204 27.752065 0 15.328104-12.428054 27.751041-27.758204 27.75104z m0-638.274961H123.059734v138.758274c0 15.326057-12.429077 27.748994-27.758204 27.748994-15.33015 0-27.758204-12.422937-27.758204-27.748994V192.606693c0-15.322987 12.428054-27.752064 27.758204-27.752064h166.54513c15.33015 0 27.758204 12.429077 27.758204 27.752064 0 15.328104-12.428054 27.752064-27.758204 27.752064z" fill="currentColor"></path></svg>