<svg xmlns="http://www.w3.org/2000/svg" xmlns:xlink="http://www.w3.org/1999/xlink" width="1em" height="1em" viewBox="0 0 16 16" version="1.1"><g stroke-width="1" fill-rule="evenodd"><path d="M8.55595221,-1.5261864 C8.88741773,-1.5261864 9.15621426,-1.25765205 9.15653772,-0.926186684 L9.16739175,10.3828136 L10.9946787,10.3836977 C11.2708211,10.3836977 11.4946787,10.6075553 11.4946787,10.8836977 C11.4946787,10.9607525 11.4768694,11.0367648 11.4426413,11.1058002 L8.8378495,16.3594519 C8.7642512,16.5078936 8.58425218,16.5685662 8.43581043,16.4949679 C8.37895485,16.4667786 8.33250284,16.4212859 8.30313336,16.3650308 L5.56226325,11.1150985 C5.43446412,10.8703088 5.52930372,10.5682659 5.77409341,10.4404667 C5.84552557,10.4031736 5.92491301,10.3836977 6.0054942,10.3836977 L7.96739175,10.3828136 L7.95653772,-0.926186684 C7.95621467,-1.25723416 8.22431979,-1.52586306 8.55536727,-1.52618611 Z" transform="translate(8.500035, 7.500035) rotate(-135.000000) translate(-8.500035, -7.500035) "></path></g></svg>