<svg viewBox="0 0 1024 1024" version="1.1" xmlns="http://www.w3.org/2000/svg" width="128" height="128">
    <path d="M512 0C229.677714 0 0 229.677714 0 512s229.677714 512 512 512 512-229.677714 512-512S794.322286 0 512 0z m104.114286 382.016l166.633143-166.624a18.281143 18.281143 0 1 1 25.860571 25.860571l-166.633143 166.624a18.226286 18.226286 0 0 1-12.928 5.353143 18.281143 18.281143 0 0 1-12.928-31.213714z m43.529143 545.805714c-17.778286 40.836571-49.321143 63.410286-89.257143 63.410286-282.322286 0-512-229.677714-512-512 0-36.928 17.997714-67.373714 50.788571-87.963429C161.202286 218.034286 322.057143 91.428571 512 91.428571a18.285714 18.285714 0 1 1 0 36.571429c-162.203429 0-300.918857 101.248-357.097143 243.730286 83.437714-22.660571 208.731429-2.322286 311.259429 63.84L512 342.678857l49.76 100.841143 111.268571 16.16-80.521142 78.482286 5.805714 33.837714c63.222857 102.322286 88.845714 226.212571 74.016 311.963429C814.272 824.608 914.285714 684.374857 914.285714 521.142857a18.285714 18.285714 0 0 1 18.285715-18.285714 18.285714 18.285714 0 0 1 18.285714 18.285714c0 188.48-122.043429 348.909714-291.213714 406.674286z" fill="#FD5A5A" p-id="7460"></path><path d="M502.857143 932.571429a18.285714 18.285714 0 0 1 18.285714-18.285715 390.834286 390.834286 0 0 0 151.186286-30.322285c14.829714-85.750857-10.793143-209.641143-74.016-311.963429l13.206857 76.982857L512 596.662857l-99.529143 52.32 19.012572-110.820571-80.512-78.482286 111.268571-16.16 3.922286-7.949714C363.634286 369.408 238.340571 349.074286 154.902857 371.730286 137.750857 415.250286 128 462.464 128 512a18.285714 18.285714 0 0 1-18.285714 18.285714 18.285714 18.285714 0 0 1-18.285715-18.285714c0-41.965714 6.262857-82.468571 17.750858-120.731429-32.795429 20.589714-50.793143 51.035429-50.793143 87.963429 0 282.322286 229.677714 512 512 512 39.936 0 71.478857-22.573714 89.257143-63.410286A427.570286 427.570286 0 0 1 521.142857 950.857143a18.285714 18.285714 0 0 1-18.285714-18.285714z m-117.828572-256.786286l-147.748571 147.748571a18.230857 18.230857 0 0 1-12.932571 5.357715 18.281143 18.281143 0 0 1-12.928-31.213715l147.748571-147.748571a18.276571 18.276571 0 0 1 25.860571 0 18.276571 18.276571 0 0 1 0 25.856z" fill="#FE7D71" p-id="7461"></path><path d="M350.971429 459.68l80.512 78.482286-19.012572 110.820571L512 596.662857l99.52 52.32-13.211429-76.982857-5.801142-33.837714 80.521142-78.482286-111.268571-16.16L512 342.674286l-45.837714 92.896-3.922286 7.949714z" fill="#D8F768"></path>
    <path d="M932.571429 502.857143a18.285714 18.285714 0 0 0-18.285715 18.285714c0 163.232-100.018286 303.465143-241.956571 362.820572A390.834286 390.834286 0 0 1 521.142857 914.285714a18.285714 18.285714 0 1 0 0 36.571429c48.457143 0 95.008-8.182857 138.500572-23.04C828.813714 870.057143 950.857143 709.622857 950.857143 521.142857a18.285714 18.285714 0 0 0-18.285714-18.285714zM109.714286 530.285714a18.285714 18.285714 0 0 0 18.285714-18.285714c0-49.536 9.750857-96.749714 26.902857-140.269714C211.081143 229.248 349.796571 128 512 128a18.285714 18.285714 0 1 0 0-36.571429c-189.942857 0-350.802286 126.605714-402.820571 299.84A419.067429 419.067429 0 0 0 91.428571 512a18.285714 18.285714 0 0 0 18.285715 18.285714zM629.046857 413.229714c4.676571 0 9.353143-1.782857 12.928-5.353143l166.628572-166.628571a18.281143 18.281143 0 1 0-25.856-25.856l-166.628572 166.628571a18.281143 18.281143 0 0 0 12.928 31.209143zM359.168 649.929143l-147.748571 147.748571a18.281143 18.281143 0 1 0 25.856 25.856l147.748571-147.748571a18.276571 18.276571 0 0 0 0-25.856 18.276571 18.276571 0 0 0-25.856 0z" fill="#FFDC82"></path>
</svg>