<svg viewBox="0 0 1024 1024" version="1.1" xmlns="http://www.w3.org/2000/svg" width="128" height="128">
    <path d="M96 288h32-32z m704 576v32-32zM224 864v32-32zM928 288h-32 32z m0 448h32-32zM800 160v32-32zM224 160V128v32z m-128 160a32 32 0 0 0 0 64v-64z m832 64a32 32 0 1 0 0-64v64zM96 512a32 32 0 1 0 0 64v-64z m832 64a32 32 0 1 0 0-64v64zM64 288v448h64V288H64z m736 544H224v64h576v-64z m96-544v448h64V288h-64z m-96-160H224v64h576V128z m160 160a160 160 0 0 0-160-160v64a96 96 0 0 1 96 96h64zM128 288a96 96 0 0 1 96-96V128a160 160 0 0 0-160 160h64zM64 736a160 160 0 0 0 160 160v-64a96 96 0 0 1-96-96H64z m736 160a160 160 0 0 0 160-160h-64a96 96 0 0 1-96 96v64zM96 384h832v-64H96v64z m0 192h832v-64H96v64z"></path>
</svg>