<svg viewBox="0 0 16 16" version="1.1" xmlns="http://www.w3.org/2000/svg" height="1em" width="1em" preserveAspectRatio="xMidYMid meet" focusable="false"><g stroke-width="1" fill-rule="evenodd"><path d="M9.3,6.7 L1.7,6.7 L1.7,14.3 L9.3,14.3 L9.3,6.7 Z M10.5,9.8 C12.8748244,9.8 14.8,7.87482442 14.8,5.5 C14.8,3.12517558 12.8748244,1.2 10.5,1.2 C8.12517558,1.2 6.2,3.12517558 6.2,5.5 L9.5,5.5 C10.0522847,5.5 10.5,5.94771525 10.5,6.5 L10.5,9.8 Z M10.5,14.5 C10.5,15.0522847 10.0522847,15.5 9.5,15.5 L1.5,15.5 C0.94771525,15.5 0.5,15.0522847 0.5,14.5 L0.5,6.5 C0.5,5.94771525 0.94771525,5.5 1.5,5.5 L5,5.5 C5,2.46243388 7.46243388,0 10.5,0 C13.5375661,0 16,2.46243388 16,5.5 C16,8.53756612 13.5375661,11 10.5,11 L10.5,14.5 Z"></path></g></svg>