<svg viewBox="0 0 1024 1024" version="1.1" xmlns="http://www.w3.org/2000/svg" width="128" height="128"><path d="M365.952 732.458667l87.466667-348.245334h81.621333l20.48-81.066666h-81.066667l8.618667-34.346667c7.765333-30.848 13.568-33.493333 39.936-33.493333l29.269333 1.28 19.541334 3.413333 21.333333-85.077333-23.125333-3.584a176.341333 176.341333 0 0 0-32.085334-1.92c-76.928 0-119.338667 32.426667-137.6 104.96l-12.245333 48.768h-59.306667l-20.394666 81.066666H366.933333l-87.466666 348.245334h86.058666z m129.706667-315.818667l76.928 147.626667-174.848 168.106666h106.026666l103.509334-102.229333 52.650666 102.229333h92.928l-85.12-159.701333 161.109334-156.16h-105.813334l-90.368 89.088-45.056-89.088h-91.989333zM170.666667 810.666667v85.333333h682.666666v-85.333333H170.666667z"></path></svg>